<svg width="268" height="43" viewBox="0 0 268 43" fill="none" xmlns="http://www.w3.org/2000/svg">
<path d="M27.5193 4.06188C28.2263 2.48781 30.4612 2.48781 31.1682 4.06188L35.4016 13.4871C35.7243 14.2055 36.4385 14.6677 37.226 14.6677H49.1471C51.2357 14.6677 51.9264 17.4664 50.0776 18.4381L41.6678 22.8581C40.7325 23.3497 40.3409 24.484 40.7738 25.4479L44.2176 33.115C44.9963 34.8488 43.1451 36.5891 41.4627 35.7048L30.2742 29.8244C29.6917 29.5182 28.9958 29.5182 28.4133 29.8244L17.2248 35.7048C15.5424 36.5891 13.6912 34.8488 14.4699 33.115L17.9137 25.4479C18.3466 24.484 17.955 23.3497 17.0197 22.8581L8.60991 18.4381C6.76113 17.4664 7.45181 14.6677 9.54038 14.6677H21.4615C22.249 14.6677 22.9632 14.2055 23.2859 13.4871L27.5193 4.06188Z" fill="#D9D9D9"/>
<path d="M79.7879 4.06194C80.4949 2.48787 82.7297 2.48787 83.4367 4.06194L87.6701 13.4872C87.9928 14.2056 88.707 14.6677 89.4946 14.6677H101.416C103.504 14.6677 104.195 17.4664 102.346 18.4381L93.9363 22.8582C93.001 23.3497 92.6095 24.4841 93.0424 25.448L96.4861 33.1151C97.2648 34.8488 95.4136 36.5891 93.7312 35.7049L82.5428 29.8245C81.9602 29.5183 81.2644 29.5183 80.6818 29.8245L69.4934 35.7049C67.811 36.5891 65.9598 34.8488 66.7385 33.1151L70.1822 25.448C70.6151 24.4841 70.2236 23.3497 69.2883 22.8582L60.8785 18.4381C59.0297 17.4664 59.7204 14.6677 61.8089 14.6677H73.7301C74.5176 14.6677 75.2318 14.2056 75.5545 13.4872L79.7879 4.06194Z" fill="#D9D9D9"/>
<path d="M132.056 4.06194C132.763 2.48787 134.998 2.48787 135.705 4.06194L139.939 13.4872C140.261 14.2056 140.976 14.6677 141.763 14.6677H153.684C155.773 14.6677 156.463 17.4664 154.615 18.4381L146.205 22.8582C145.27 23.3497 144.878 24.4841 145.311 25.448L148.755 33.1151C149.533 34.8488 147.682 36.5891 146 35.7049L134.811 29.8245C134.229 29.5183 133.533 29.5183 132.95 29.8245L121.762 35.7049C120.08 36.5891 118.228 34.8488 119.007 33.1151L122.451 25.448C122.884 24.4841 122.492 23.3497 121.557 22.8582L113.147 18.4381C111.298 17.4664 111.989 14.6677 114.077 14.6677H125.999C126.786 14.6677 127.5 14.2056 127.823 13.4872L132.056 4.06194Z" fill="#D9D9D9"/>
<path d="M184.325 4.06194C185.032 2.48787 187.267 2.48787 187.974 4.06194L192.207 13.4872C192.53 14.2056 193.244 14.6677 194.032 14.6677H205.953C208.041 14.6677 208.732 17.4664 206.883 18.4381L198.473 22.8582C197.538 23.3497 197.147 24.4841 197.58 25.448L201.023 33.1151C201.802 34.8488 199.951 36.5891 198.268 35.7049L187.08 29.8245C186.497 29.5183 185.801 29.5183 185.219 29.8245L174.03 35.7049C172.348 36.5891 170.497 34.8488 171.276 33.1151L174.719 25.448C175.152 24.4841 174.761 23.3497 173.825 22.8582L165.416 18.4381C163.567 17.4664 164.257 14.6677 166.346 14.6677H178.267C179.055 14.6677 179.769 14.2056 180.092 13.4872L184.325 4.06194Z" fill="#D9D9D9"/>
<path d="M236.594 4.06194C237.301 2.48787 239.535 2.48787 240.242 4.06194L244.476 13.4872C244.798 14.2056 245.513 14.6677 246.3 14.6677H258.221C260.31 14.6677 261.001 17.4664 259.152 18.4381L250.742 22.8582C249.807 23.3497 249.415 24.4841 249.848 25.448L253.292 33.1151C254.071 34.8488 252.219 36.5891 250.537 35.7049L239.348 29.8245C238.766 29.5183 238.07 29.5183 237.487 29.8245L226.299 35.7049C224.617 36.5891 222.765 34.8488 223.544 33.1151L226.988 25.448C227.421 24.4841 227.029 23.3497 226.094 22.8582L217.684 18.4381C215.835 17.4664 216.526 14.6677 218.615 14.6677H230.536C231.323 14.6677 232.037 14.2056 232.36 13.4872L236.594 4.06194Z" fill="#D9D9D9"/>
</svg>
