<svg width="269" height="43" viewBox="0 0 269 43" fill="none" xmlns="http://www.w3.org/2000/svg">
<path d="M28.1228 4.15465C28.8298 2.58059 31.0647 2.58058 31.7717 4.15465L36.0051 13.5799C36.3278 14.2983 37.042 14.7605 37.8295 14.7605H49.7506C51.8392 14.7605 52.5299 17.5591 50.6811 18.5308L42.2713 22.9509C41.336 23.4425 40.9444 24.5768 41.3774 25.5407L44.8211 33.2078C45.5998 34.9415 43.7486 36.6818 42.0662 35.7976L30.8777 29.9172C30.2952 29.611 29.5993 29.611 29.0168 29.9172L17.8283 35.7976C16.146 36.6818 14.2947 34.9415 15.0734 33.2078L18.5172 25.5407C18.9501 24.5768 18.5586 23.4425 17.6232 22.9509L9.21343 18.5308C7.36465 17.5591 8.05532 14.7605 10.1439 14.7605H22.065C22.8525 14.7605 23.5668 14.2983 23.8894 13.5799L28.1228 4.15465Z" fill="#D9D9D9"/>
<path d="M80.3914 4.15465C81.0984 2.58059 83.3332 2.58058 84.0402 4.15465L88.2736 13.5799C88.5963 14.2983 89.3105 14.7605 90.0981 14.7605H102.019C104.108 14.7605 104.798 17.5591 102.95 18.5308L94.5399 22.9509C93.6045 23.4425 93.213 24.5768 93.6459 25.5407L97.0896 33.2078C97.8684 34.9415 96.0171 36.6818 94.3348 35.7976L83.1463 29.9172C82.5638 29.611 81.8679 29.611 81.2853 29.9172L70.0969 35.7976C68.4145 36.6818 66.5633 34.9415 67.342 33.2078L70.7857 25.5407C71.2187 24.5768 70.8271 23.4425 69.8918 22.9509L61.482 18.5308C59.6332 17.5591 60.3239 14.7605 62.4125 14.7605H74.3336C75.1211 14.7605 75.8353 14.2983 76.158 13.5799L80.3914 4.15465Z" fill="#D9D9D9"/>
<path d="M132.66 4.15465C133.367 2.58059 135.602 2.58058 136.309 4.15465L140.542 13.5799C140.865 14.2983 141.579 14.7605 142.367 14.7605H154.288C156.376 14.7605 157.067 17.5591 155.218 18.5308L146.808 22.9509C145.873 23.4425 145.482 24.5768 145.914 25.5407L149.358 33.2078C150.137 34.9415 148.286 36.6818 146.603 35.7976L135.415 29.9172C134.832 29.611 134.136 29.611 133.554 29.9172L122.365 35.7976C120.683 36.6818 118.832 34.9415 119.611 33.2078L123.054 25.5407C123.487 24.5768 123.096 23.4425 122.16 22.9509L113.751 18.5308C111.902 17.5591 112.592 14.7605 114.681 14.7605H126.602C127.39 14.7605 128.104 14.2983 128.427 13.5799L132.66 4.15465Z" fill="#D9D9D9"/>
<path d="M184.929 4.15465C185.636 2.58059 187.87 2.58058 188.577 4.15465L192.811 13.5799C193.133 14.2983 193.848 14.7605 194.635 14.7605H206.556C208.645 14.7605 209.336 17.5591 207.487 18.5308L199.077 22.9509C198.142 23.4425 197.75 24.5768 198.183 25.5407L201.627 33.2078C202.405 34.9415 200.554 36.6818 198.872 35.7976L187.683 29.9172C187.101 29.611 186.405 29.611 185.822 29.9172L174.634 35.7976C172.952 36.6818 171.1 34.9415 171.879 33.2078L175.323 25.5407C175.756 24.5768 175.364 23.4425 174.429 22.9509L166.019 18.5308C164.17 17.5591 164.861 14.7605 166.95 14.7605H178.871C179.658 14.7605 180.372 14.2983 180.695 13.5799L184.929 4.15465Z" fill="#D9D9D9"/>
<path d="M237.197 4.15465C237.904 2.58059 240.139 2.58058 240.846 4.15465L245.079 13.5799C245.402 14.2983 246.116 14.7605 246.904 14.7605H258.825C260.913 14.7605 261.604 17.5591 259.755 18.5308L251.346 22.9509C250.41 23.4425 250.019 24.5768 250.452 25.5407L253.895 33.2078C254.674 34.9415 252.823 36.6818 251.14 35.7976L239.952 29.9172C239.369 29.611 238.674 29.611 238.091 29.9172L226.903 35.7976C225.22 36.6818 223.369 34.9415 224.148 33.2078L227.591 25.5407C228.024 24.5768 227.633 23.4425 226.697 22.9509L218.288 18.5308C216.439 17.5591 217.13 14.7605 219.218 14.7605H231.139C231.927 14.7605 232.641 14.2983 232.964 13.5799L237.197 4.15465Z" fill="#D9D9D9"/>
</svg>
