<svg width="41" height="37" viewBox="0 0 41 37" fill="none" xmlns="http://www.w3.org/2000/svg">
<path d="M18.7886 2.27051C19.4208 0.501183 21.9231 0.501187 22.5553 2.27052L26.0003 11.9111C26.2847 12.7069 27.0386 13.2381 27.8837 13.2381H38.596C40.5791 13.2381 41.3531 15.8137 39.6984 16.9068L31.3694 22.4092C30.601 22.9168 30.2786 23.8836 30.5885 24.7509L33.8451 33.8645C34.4918 35.6742 32.4628 37.2655 30.8593 36.2063L21.7744 30.2045C21.1058 29.7628 20.2381 29.7628 19.5695 30.2045L10.4846 36.2063C8.88114 37.2655 6.85213 35.6742 7.4988 33.8645L10.7554 24.7509C11.0654 23.8836 10.7429 22.9168 9.97449 22.4092L1.64551 16.9068C-0.00917507 15.8137 0.764767 13.2381 2.74792 13.2381H13.4603C14.3054 13.2381 15.0592 12.7069 15.3436 11.9111L18.7886 2.27051Z" fill="#FFE816"/>
</svg>
