<svg width="41" height="37" viewBox="0 0 41 37" fill="none" xmlns="http://www.w3.org/2000/svg">
<path d="M19.0269 2.27051C19.6591 0.501183 22.1614 0.501187 22.7936 2.27052L26.2386 11.9111C26.5229 12.7069 27.2768 13.2381 28.1219 13.2381H38.8343C40.8174 13.2381 41.5914 15.8137 39.9367 16.9068L31.6077 22.4092C30.8393 22.9168 30.5168 23.8836 30.8267 24.7509L34.0834 33.8645C34.7301 35.6742 32.7011 37.2655 31.0976 36.2063L22.0127 30.2045C21.3441 29.7628 20.4764 29.7628 19.8078 30.2045L10.7229 36.2063C9.11942 37.2655 7.09041 35.6742 7.73708 33.8645L10.9937 24.7509C11.3036 23.8836 10.9812 22.9168 10.2128 22.4092L1.88379 16.9068C0.229106 15.8137 1.00305 13.2381 2.9862 13.2381H13.6985C14.5436 13.2381 15.2975 12.7069 15.5819 11.9111L19.0269 2.27051Z" fill="#FFE816"/>
</svg>
