<svg width="41" height="37" viewBox="0 0 41 37" fill="none" xmlns="http://www.w3.org/2000/svg">
<path d="M18.7163 2.27051C19.3486 0.501183 21.8508 0.501187 22.4831 2.27052L25.928 11.9111C26.2124 12.7069 26.9663 13.2381 27.8114 13.2381H38.5237C40.5069 13.2381 41.2808 15.8137 39.6261 16.9068L31.2972 22.4092C30.5287 22.9168 30.2063 23.8836 30.5162 24.7509L33.7729 33.8645C34.4195 35.6742 32.3905 37.2655 30.7871 36.2063L21.7021 30.2045C21.0335 29.7628 20.1659 29.7628 19.4973 30.2045L10.4123 36.2063C8.80887 37.2655 6.77987 35.6742 7.42653 33.8645L10.6832 24.7509C10.9931 23.8836 10.6707 22.9168 9.90223 22.4092L1.57324 16.9068C-0.0814407 15.8137 0.692501 13.2381 2.67566 13.2381H13.388C14.2331 13.2381 14.987 12.7069 15.2714 11.9111L18.7163 2.27051Z" fill="#FFE816"/>
</svg>
