<svg width="41" height="37" viewBox="0 0 41 37" fill="none" xmlns="http://www.w3.org/2000/svg">
<path d="M18.7525 2.27051C19.3847 0.501183 21.8869 0.501187 22.5192 2.27052L25.9642 11.9111C26.2485 12.7069 27.0024 13.2381 27.8475 13.2381H38.5599C40.543 13.2381 41.317 15.8137 39.6623 16.9068L31.3333 22.4092C30.5648 22.9168 30.2424 23.8836 30.5523 24.7509L33.809 33.8645C34.4557 35.6742 32.4266 37.2655 30.8232 36.2063L21.7382 30.2045C21.0697 29.7628 20.202 29.7628 19.5334 30.2045L10.4484 36.2063C8.84501 37.2655 6.816 35.6742 7.46266 33.8645L10.7193 24.7509C11.0292 23.8836 10.7068 22.9168 9.93836 22.4092L1.60938 16.9068C-0.0453079 15.8137 0.728634 13.2381 2.71179 13.2381H13.4241C14.2692 13.2381 15.0231 12.7069 15.3075 11.9111L18.7525 2.27051Z" fill="#FFE816"/>
</svg>
