<svg width="41" height="37" viewBox="0 0 41 37" fill="none" xmlns="http://www.w3.org/2000/svg">
<path d="M18.8247 2.27051C19.457 0.501183 21.9592 0.501187 22.5915 2.27052L26.0364 11.9111C26.3208 12.7069 27.0747 13.2381 27.9198 13.2381H38.6321C40.6153 13.2381 41.3892 15.8137 39.7345 16.9068L31.4056 22.4092C30.6371 22.9168 30.3147 23.8836 30.6246 24.7509L33.8813 33.8645C34.5279 35.6742 32.4989 37.2655 30.8955 36.2063L21.8105 30.2045C21.1419 29.7628 20.2743 29.7628 19.6057 30.2045L10.5207 36.2063C8.91727 37.2655 6.88826 35.6742 7.53493 33.8645L10.7916 24.7509C11.1015 23.8836 10.7791 22.9168 10.0106 22.4092L1.68164 16.9068C0.0269577 15.8137 0.8009 13.2381 2.78405 13.2381H13.4964C14.3415 13.2381 15.0954 12.7069 15.3798 11.9111L18.8247 2.27051Z" fill="#D9D9D9"/>
</svg>
